<?xml version="1.0" encoding="UTF-8" standalone="no"?>
<!-- Created with Inkscape (http://www.inkscape.org/) -->

<svg
   width="37.056652mm"
   height="55.079834mm"
   viewBox="0 0 37.056652 55.079834"
   version="1.1"
   id="svg1"
   inkscape:version="1.4 (e7c3feb1, 2024-10-09)"
   sodipodi:docname="icon_designs.svg"
   xml:space="preserve"
   xmlns:inkscape="http://www.inkscape.org/namespaces/inkscape"
   xmlns:sodipodi="http://sodipodi.sourceforge.net/DTD/sodipodi-0.dtd"
   xmlns="http://www.w3.org/2000/svg"
   xmlns:svg="http://www.w3.org/2000/svg"><sodipodi:namedview
     id="namedview1"
     pagecolor="#ffffff"
     bordercolor="#000000"
     borderopacity="0.25"
     inkscape:showpageshadow="2"
     inkscape:pageopacity="0.0"
     inkscape:pagecheckerboard="0"
     inkscape:deskcolor="#d1d1d1"
     inkscape:document-units="mm"
     showguides="true"
     inkscape:zoom="0.95375992"
     inkscape:cx="831.44614"
     inkscape:cy="339.18389"
     inkscape:window-width="1888"
     inkscape:window-height="1027"
     inkscape:window-x="1023"
     inkscape:window-y="25"
     inkscape:window-maximized="0"
     inkscape:current-layer="layer1"><sodipodi:guide
       position="18.483107,107.6133"
       orientation="1,0"
       id="guide5"
       inkscape:locked="false" /><sodipodi:guide
       position="59.599404,137.63683"
       orientation="0.70710677,0.7071068"
       id="guide15"
       inkscape:locked="false" /><inkscape:page
       x="0"
       y="0"
       width="37.056652"
       height="55.079834"
       id="page2"
       margin="0"
       bleed="0" /></sodipodi:namedview><defs
     id="defs1" /><g
     inkscape:label="Layer 1"
     inkscape:groupmode="layer"
     id="layer1"
     transform="translate(-26.189894,-101.97576)"><path
       d="m 44.674035,101.97576 c -6.668202,0 -12.130525,5.46284 -12.130525,12.13104 v 14.75569 h -1.670183 c -2.576658,0 -4.683435,2.10678 -4.683435,4.68344 v 18.82624 c 0,2.57666 2.106777,4.68343 4.683435,4.68343 h 27.689266 c 2.576658,0 4.683952,-2.10677 4.683952,-4.68343 v -18.82624 c 0,-2.57666 -2.107294,-4.68344 -4.683952,-4.68344 H 56.803011 V 114.1068 c 0,-6.6682 -5.460773,-12.13104 -12.128976,-12.13104 z m 0,6.00015 c 3.447986,0 6.128825,2.68291 6.128825,6.13089 v 14.75569 H 38.543144 V 114.1068 c 0,-3.44798 2.682906,-6.13089 6.130891,-6.13089 z m -13.800708,22.88646 h 1.670183 5.999634 12.259716 6.000151 1.759582 c 1.503253,0 2.683558,1.1803 2.683558,2.68356 v 18.82624 c 0,1.50325 -1.180305,2.68355 -2.683558,2.68355 H 30.873327 c -1.503253,0 -2.683557,-1.1803 -2.683557,-2.68355 v -18.82624 c 0,-1.50326 1.180304,-2.68356 2.683557,-2.68356 z"
       id="path9"
       inkscape:export-filename="icons/close.svg"
       inkscape:export-xdpi="96"
       inkscape:export-ydpi="96" /><path
       d="m 44.673759,134.57032 c -2.532167,0 -4.607471,2.07531 -4.607471,4.60747 0,1.56226 0.790761,2.94893 1.990576,3.78272 -2.73e-4,0.0153 -0.0021,0.0301 -0.0021,0.0455 v 6.05648 c 0,1.42039 1.175313,2.5957 2.595708,2.5957 h 0.04496 c 1.420395,0 2.595707,-1.17531 2.595707,-2.5957 v -6.05648 c 0,-0.015 -0.0023,-0.0295 -0.0026,-0.0444 1.200105,-0.83367 1.990577,-2.22082 1.990577,-3.78375 0,-2.53217 -2.073237,-4.60747 -4.605404,-4.60747 z m 0,2.0004 c 1.451287,0 2.605526,1.15579 2.605526,2.60707 0,0.76521 -0.323123,1.4454 -0.839226,1.91978 -0.318706,0.29295 -0.711907,0.50502 -1.149283,0.6103 v 1.29811 0.73433 5.32215 c 0,0.34699 -0.248323,0.59583 -0.595313,0.59583 h -0.04496 c -0.34699,0 -0.595829,-0.24884 -0.59583,-0.59583 v -5.32215 -0.73433 -1.29862 c -0.437086,-0.10549 -0.830078,-0.31746 -1.148767,-0.6103 -0.51623,-0.47436 -0.839742,-1.15439 -0.839742,-1.91927 0,-1.45128 1.156306,-2.60707 2.607593,-2.60707 z"
       style="fill:#808080;stroke:#1a1a1a;stroke-width:0.5"
       id="path10"
       inkscape:export-filename="lock"
       inkscape:export-xdpi="96"
       inkscape:export-ydpi="96" /></g></svg>
