<?xml version="1.0" encoding="UTF-8" standalone="no"?>
<!-- Created with Inkscape (http://www.inkscape.org/) -->

<svg
   width="48.596001mm"
   height="45.105255mm"
   viewBox="0 0 48.596001 45.105255"
   version="1.1"
   id="svg1"
   inkscape:version="1.4 (e7c3feb1, 2024-10-09)"
   sodipodi:docname="icon_designs.svg"
   xml:space="preserve"
   xmlns:inkscape="http://www.inkscape.org/namespaces/inkscape"
   xmlns:sodipodi="http://sodipodi.sourceforge.net/DTD/sodipodi-0.dtd"
   xmlns="http://www.w3.org/2000/svg"
   xmlns:svg="http://www.w3.org/2000/svg"><sodipodi:namedview
     id="namedview1"
     pagecolor="#ffffff"
     bordercolor="#000000"
     borderopacity="0.25"
     inkscape:showpageshadow="2"
     inkscape:pageopacity="0.0"
     inkscape:pagecheckerboard="0"
     inkscape:deskcolor="#d1d1d1"
     inkscape:document-units="mm"
     showguides="true"
     inkscape:zoom="0.95375992"
     inkscape:cx="831.44614"
     inkscape:cy="339.18389"
     inkscape:window-width="1888"
     inkscape:window-height="1027"
     inkscape:window-x="1023"
     inkscape:window-y="25"
     inkscape:window-maximized="0"
     inkscape:current-layer="layer1"><sodipodi:guide
       position="-45.46155,106.07121"
       orientation="1,0"
       id="guide5"
       inkscape:locked="false" /><sodipodi:guide
       position="-4.3452518,136.09474"
       orientation="0.70710677,0.7071068"
       id="guide15"
       inkscape:locked="false" /><inkscape:page
       x="0"
       y="0"
       width="48.596001"
       height="45.105255"
       id="page2"
       margin="0"
       bleed="0" /></sodipodi:namedview><defs
     id="defs1" /><g
     inkscape:label="Layer 1"
     inkscape:groupmode="layer"
     id="layer1"
     transform="translate(-90.13455,-110.40824)"><path
       d="m 93.027397,110.40825 0.100252,6.88588 c -1.736703,0.63719 -2.993099,2.30925 -2.993099,4.25452 v 5.59398 3.00757 20.53363 c 0,2.64929 2.178847,4.82968 4.828129,4.82968 h 38.937671 c 2.64928,0 4.8302,-2.18039 4.8302,-4.82968 v -20.53363 -3.00757 -5.59398 c 0,-2.48573 -2.04939,-4.53305 -4.53512,-4.53305 h -18.18701 l -4.15272,-6.60735 z m 3.042708,2.99981 h 14.127305 l 2.26704,3.60754 H 96.123848 Z m -1.401982,6.62492 h 23.236827 16.29048 c 0.86528,0 1.51567,0.65039 1.51567,1.51567 v 1.125 c -0.5607,-0.22976 -1.17143,-0.35915 -1.81075,-0.35915 H 94.962679 c -0.639297,0 -1.249721,0.1294 -1.810225,0.35915 v -1.125 c 0,-0.11221 0.01163,-0.22049 0.03256,-0.32452 0.140445,-0.69818 0.730056,-1.19115 1.483113,-1.19115 z m 0.294556,5.28133 h 38.937671 c 0.9695,0 1.71408,0.69032 1.81075,1.62626 0.007,0.0673 0.0191,0.13239 0.0191,0.20206 v 7.26415 16.27705 c 0,1.03918 -0.7907,1.82986 -1.82987,1.82986 H 94.962679 c -1.039173,0 -1.827795,-0.79068 -1.827795,-1.82986 v -16.27653 -7.26467 c 0,-0.064 0.01172,-0.12357 0.01757,-0.18552 0.08924,-0.94438 0.835021,-1.6428 1.810225,-1.6428 z"
       style="fill:#1a1a1a;stroke-linecap:round"
       id="path21"
       inkscape:export-filename="icons/explorer.svg"
       inkscape:export-xdpi="96"
       inkscape:export-ydpi="96" /></g></svg>
