<?xml version="1.0" encoding="UTF-8" standalone="no"?>
<!-- Created with Inkscape (http://www.inkscape.org/) -->

<svg
   width="52.333645mm"
   height="52.334682mm"
   viewBox="0 0 52.333645 52.334682"
   version="1.1"
   id="svg1"
   inkscape:version="1.4 (e7c3feb1, 2024-10-09)"
   sodipodi:docname="icon_designs.svg"
   xml:space="preserve"
   xmlns:inkscape="http://www.inkscape.org/namespaces/inkscape"
   xmlns:sodipodi="http://sodipodi.sourceforge.net/DTD/sodipodi-0.dtd"
   xmlns="http://www.w3.org/2000/svg"
   xmlns:svg="http://www.w3.org/2000/svg"><sodipodi:namedview
     id="namedview1"
     pagecolor="#ffffff"
     bordercolor="#000000"
     borderopacity="0.25"
     inkscape:showpageshadow="2"
     inkscape:pageopacity="0.0"
     inkscape:pagecheckerboard="0"
     inkscape:deskcolor="#d1d1d1"
     inkscape:document-units="mm"
     showguides="true"
     inkscape:zoom="0.95375992"
     inkscape:cx="831.44614"
     inkscape:cy="339.18389"
     inkscape:window-width="1888"
     inkscape:window-height="1027"
     inkscape:window-x="1023"
     inkscape:window-y="25"
     inkscape:window-maximized="0"
     inkscape:current-layer="layer1"><sodipodi:guide
       position="-43.375886,24.570142"
       orientation="1,0"
       id="guide5"
       inkscape:locked="false" /><sodipodi:guide
       position="-2.2595879,54.593672"
       orientation="0.70710677,0.7071068"
       id="guide15"
       inkscape:locked="false" /><inkscape:page
       x="0"
       y="0"
       width="52.333645"
       height="52.334682"
       id="page2"
       margin="0"
       bleed="0" /></sodipodi:namedview><defs
     id="defs1" /><g
     inkscape:label="Layer 1"
     inkscape:groupmode="layer"
     id="layer1"
     transform="translate(-88.048887,-21.677745)"><path
       d="m 108.32827,21.677747 c -11.176383,0 -20.279381,9.103003 -20.279381,20.279382 0,11.17638 9.102998,20.280933 20.279381,20.280933 4.14574,0 8.00466,-1.254757 11.22102,-3.401343 l 14.00328,14.003279 c 1.56229,1.563241 4.09628,1.563241 5.65857,0 1.56186,-1.562057 1.56186,-4.094445 0,-5.656502 l -14.00483,-14.00483 c 2.14626,-3.216711 3.40134,-7.075786 3.40134,-11.221537 0,-11.176379 -9.10301,-20.279382 -20.27938,-20.279382 z m 0,3.999755 c 9.01461,0 16.27911,7.265008 16.27911,16.279627 0,3.051399 -0.83478,5.900676 -2.28565,8.337475 -1.3845,2.325334 -3.33145,4.272752 -5.6565,5.657536 -2.4365,1.451164 -5.28556,2.286166 -8.33696,2.286166 -9.014623,0 -16.279625,-7.266558 -16.279625,-16.281177 0,-9.014619 7.265002,-16.279627 16.279625,-16.279627 z"
       style="fill:#1a1a1a;stroke-linecap:round"
       id="path16"
       inkscape:export-filename="icons/search.svg"
       inkscape:export-xdpi="96"
       inkscape:export-ydpi="96" /></g></svg>
