<?xml version="1.0" encoding="UTF-8" standalone="no"?>
<!-- Created with Inkscape (http://www.inkscape.org/) -->

<svg
   width="45.038727mm"
   height="48.372047mm"
   viewBox="0 0 45.038727 48.372047"
   version="1.1"
   id="svg1"
   inkscape:version="1.4 (e7c3feb1, 2024-10-09)"
   sodipodi:docname="icon_designs.svg"
   xml:space="preserve"
   xmlns:inkscape="http://www.inkscape.org/namespaces/inkscape"
   xmlns:sodipodi="http://sodipodi.sourceforge.net/DTD/sodipodi-0.dtd"
   xmlns="http://www.w3.org/2000/svg"
   xmlns:svg="http://www.w3.org/2000/svg"><sodipodi:namedview
     id="namedview1"
     pagecolor="#ffffff"
     bordercolor="#000000"
     borderopacity="0.25"
     inkscape:showpageshadow="2"
     inkscape:pageopacity="0.0"
     inkscape:pagecheckerboard="0"
     inkscape:deskcolor="#d1d1d1"
     inkscape:document-units="mm"
     showguides="true"
     inkscape:zoom="0.95375992"
     inkscape:cx="831.44614"
     inkscape:cy="339.18389"
     inkscape:window-width="1888"
     inkscape:window-height="1027"
     inkscape:window-x="1023"
     inkscape:window-y="25"
     inkscape:window-maximized="0"
     inkscape:current-layer="layer1"><sodipodi:guide
       position="-112.02566,22.834426"
       orientation="1,0"
       id="guide5"
       inkscape:locked="false" /><sodipodi:guide
       position="-70.909357,52.857956"
       orientation="0.70710677,0.7071068"
       id="guide15"
       inkscape:locked="false" /><inkscape:page
       x="0"
       y="0"
       width="45.038727"
       height="48.372047"
       id="page2"
       margin="0"
       bleed="0" /></sodipodi:namedview><defs
     id="defs1" /><g
     inkscape:label="Layer 1"
     inkscape:groupmode="layer"
     id="layer1"
     transform="translate(-156.69866,-23.904669)"><path
       fill="none"
       stroke="#000000"
       stroke-width="4.16698"
       d="m 162.82037,30.735687 33.33582,33.335824 m 4.16698,-16.667913 c 0,0 -11.0007,11.000705 -11.0007,11.000705 m -3.58372,3.583718 c 0,0 -2.51425,2.514254 -4.16698,4.16698 -12.50093,12.500933 -31.25234,-6.250468 -18.7514,-18.7514 1.84496,-1.844962 4.16698,-4.16698 4.16698,-4.16698 m 4.16697,-4.166978 c 0,0 4.50359,-4.503585 10.41745,-10.417445 8.33396,-8.333956 20.83489,4.166978 12.50093,12.500934 -4.19337,4.193373 -10.41744,10.417445 -10.41744,10.417445 m -4.16698,4.166978 c 0,0 -2.81722,2.817225 -4.16698,4.166978 -4.16698,4.166978 -10.41744,-2.083488 -6.25046,-6.250466 1.04277,-1.042776 4.16698,-4.166978 4.16698,-4.166978 m 4.16697,-4.166979 c -0.54409,0.544095 10.41745,-10.417445 10.41745,-10.417445"
       id="path1"
       style="stroke-width:4"
       inkscape:export-filename="icons/undock.svg"
       inkscape:export-xdpi="96"
       inkscape:export-ydpi="96" /></g></svg>
