<?xml version="1.0" encoding="UTF-8" standalone="no"?>
<!-- Created with Inkscape (http://www.inkscape.org/) -->

<svg
   width="297mm"
   height="210mm"
   viewBox="0 0 297 210"
   version="1.1"
   id="svg1"
   inkscape:version="1.4 (e7c3feb1, 2024-10-09)"
   sodipodi:docname="icon_designs.svg"
   xml:space="preserve"
   xmlns:inkscape="http://www.inkscape.org/namespaces/inkscape"
   xmlns:sodipodi="http://sodipodi.sourceforge.net/DTD/sodipodi-0.dtd"
   xmlns="http://www.w3.org/2000/svg"
   xmlns:svg="http://www.w3.org/2000/svg"><sodipodi:namedview
     id="namedview1"
     pagecolor="#ffffff"
     bordercolor="#000000"
     borderopacity="0.25"
     inkscape:showpageshadow="2"
     inkscape:pageopacity="0.0"
     inkscape:pagecheckerboard="0"
     inkscape:deskcolor="#d1d1d1"
     inkscape:document-units="mm"
     showguides="true"
     inkscape:zoom="0.95375992"
     inkscape:cx="429.87757"
     inkscape:cy="338.65965"
     inkscape:window-width="1104"
     inkscape:window-height="572"
     inkscape:window-x="119"
     inkscape:window-y="65"
     inkscape:window-maximized="0"
     inkscape:current-layer="layer1"><sodipodi:guide
       position="44.673002,160.55771"
       orientation="1,0"
       id="guide5"
       inkscape:locked="false" /><sodipodi:guide
       position="85.789299,190.58124"
       orientation="0.70710677,0.7071068"
       id="guide15"
       inkscape:locked="false" /></sodipodi:namedview><defs
     id="defs1" /><g
     inkscape:label="Layer 1"
     inkscape:groupmode="layer"
     id="layer1"><path
       d="m 44.674276,20.555851 c -6.668202,0 -12.130526,5.462841 -12.130526,12.131043 v 14.755688 h -1.670182 c -2.576658,0 -4.683435,2.106777 -4.683435,4.683435 v 18.826241 c 0,2.576658 2.106777,4.683435 4.683435,4.683435 h 27.689266 c 2.576658,0 4.683951,-2.106777 4.683951,-4.683435 V 52.126017 c 0,-2.576658 -2.107293,-4.683435 -4.683951,-4.683435 H 56.803251 50.803101 38.543384 V 32.686894 c 0,-3.447986 2.682907,-6.130891 6.130892,-6.130892 3.447986,0 6.128825,2.682906 6.128825,6.130892 v 1.841748 l -5.17e-4,0.0026 v 7.896675 c 1.01e-4,1.656913 1.34342,3.000001 3.000333,2.999817 1.656712,-1.01e-4 2.999716,-1.343106 2.999817,-2.999817 v -5.17e-4 h 5.17e-4 v -9.74049 c 0,-6.668202 -5.460772,-12.131043 -12.128975,-12.131043 z M 30.873568,49.44246 h 1.670182 5.999634 12.259717 6.00015 1.759583 c 1.503253,0 2.683557,1.180304 2.683557,2.683557 v 18.826241 c 0,1.503253 -1.180304,2.683557 -2.683557,2.683557 H 30.873568 c -1.503253,0 -2.683557,-1.180304 -2.683557,-2.683557 V 52.126017 c 0,-1.503253 1.180304,-2.683557 2.683557,-2.683557 z"
       style="baseline-shift:baseline;display:inline;overflow:visible;vector-effect:none;enable-background:accumulate;stop-color:#000000;stop-opacity:1"
       id="path13"
       inkscape:export-filename="icons/open.svg"
       inkscape:export-xdpi="96"
       inkscape:export-ydpi="96" /><path
       d="m 44.673759,53.150244 c -2.532167,0 -4.607471,2.075304 -4.607471,4.607471 0,1.56226 0.790761,2.948929 1.990576,3.782715 -2.73e-4,0.01528 -0.0021,0.03014 -0.0021,0.04547 v 6.056478 c 0,1.420395 1.175313,2.595707 2.595708,2.595707 h 0.04496 c 1.420395,0 2.595707,-1.175312 2.595707,-2.595707 v -6.056478 c 0,-0.015 -0.0023,-0.02949 -0.0026,-0.04444 1.200105,-0.833668 1.990577,-2.220824 1.990577,-3.783748 0,-2.532167 -2.073237,-4.607471 -4.605404,-4.607471 z m 0,2.000395 c 1.451287,0 2.605526,1.15579 2.605526,2.607076 0,0.765206 -0.323123,1.445396 -0.839226,1.919779 -0.318706,0.292945 -0.711907,0.505018 -1.149283,0.610299 v 1.298112 0.734322 5.322156 c 0,0.34699 -0.248323,0.595829 -0.595313,0.595829 h -0.04496 c -0.34699,0 -0.595829,-0.248839 -0.59583,-0.595829 v -5.322156 -0.734322 -1.298629 c -0.437086,-0.105488 -0.830078,-0.317459 -1.148767,-0.610298 -0.51623,-0.474359 -0.839742,-1.154383 -0.839742,-1.919263 0,-1.451286 1.156306,-2.607076 2.607593,-2.607076 z"
       style="fill:#808080;stroke:#1a1a1a;stroke-width:0.5"
       id="path8"
       inkscape:export-filename="lock"
       inkscape:export-xdpi="96"
       inkscape:export-ydpi="96" /><path
       d="m 44.674035,101.97576 c -6.668202,0 -12.130525,5.46284 -12.130525,12.13104 v 14.75569 h -1.670183 c -2.576658,0 -4.683435,2.10678 -4.683435,4.68344 v 18.82624 c 0,2.57666 2.106777,4.68343 4.683435,4.68343 h 27.689266 c 2.576658,0 4.683952,-2.10677 4.683952,-4.68343 v -18.82624 c 0,-2.57666 -2.107294,-4.68344 -4.683952,-4.68344 H 56.803011 V 114.1068 c 0,-6.6682 -5.460773,-12.13104 -12.128976,-12.13104 z m 0,6.00015 c 3.447986,0 6.128825,2.68291 6.128825,6.13089 v 14.75569 H 38.543144 V 114.1068 c 0,-3.44798 2.682906,-6.13089 6.130891,-6.13089 z m -13.800708,22.88646 h 1.670183 5.999634 12.259716 6.000151 1.759582 c 1.503253,0 2.683558,1.1803 2.683558,2.68356 v 18.82624 c 0,1.50325 -1.180305,2.68355 -2.683558,2.68355 H 30.873327 c -1.503253,0 -2.683557,-1.1803 -2.683557,-2.68355 v -18.82624 c 0,-1.50326 1.180304,-2.68356 2.683557,-2.68356 z"
       id="path9"
       inkscape:export-filename="icons/close.svg"
       inkscape:export-xdpi="96"
       inkscape:export-ydpi="96" /><path
       d="m 44.673759,134.57032 c -2.532167,0 -4.607471,2.07531 -4.607471,4.60747 0,1.56226 0.790761,2.94893 1.990576,3.78272 -2.73e-4,0.0153 -0.0021,0.0301 -0.0021,0.0455 v 6.05648 c 0,1.42039 1.175313,2.5957 2.595708,2.5957 h 0.04496 c 1.420395,0 2.595707,-1.17531 2.595707,-2.5957 v -6.05648 c 0,-0.015 -0.0023,-0.0295 -0.0026,-0.0444 1.200105,-0.83367 1.990577,-2.22082 1.990577,-3.78375 0,-2.53217 -2.073237,-4.60747 -4.605404,-4.60747 z m 0,2.0004 c 1.451287,0 2.605526,1.15579 2.605526,2.60707 0,0.76521 -0.323123,1.4454 -0.839226,1.91978 -0.318706,0.29295 -0.711907,0.50502 -1.149283,0.6103 v 1.29811 0.73433 5.32215 c 0,0.34699 -0.248323,0.59583 -0.595313,0.59583 h -0.04496 c -0.34699,0 -0.595829,-0.24884 -0.59583,-0.59583 v -5.32215 -0.73433 -1.29862 c -0.437086,-0.10549 -0.830078,-0.31746 -1.148767,-0.6103 -0.51623,-0.47436 -0.839742,-1.15439 -0.839742,-1.91927 0,-1.45128 1.156306,-2.60707 2.607593,-2.60707 z"
       style="fill:#808080;stroke:#1a1a1a;stroke-width:0.5"
       id="path10"
       inkscape:export-filename="lock"
       inkscape:export-xdpi="96"
       inkscape:export-ydpi="96" /><path
       d="m 108.32827,21.677747 c -11.176383,0 -20.279381,9.103003 -20.279381,20.279382 0,11.17638 9.102998,20.280933 20.279381,20.280933 4.14574,0 8.00466,-1.254757 11.22102,-3.401343 l 14.00328,14.003279 c 1.56229,1.563241 4.09628,1.563241 5.65857,0 1.56186,-1.562057 1.56186,-4.094445 0,-5.656502 l -14.00483,-14.00483 c 2.14626,-3.216711 3.40134,-7.075786 3.40134,-11.221537 0,-11.176379 -9.10301,-20.279382 -20.27938,-20.279382 z m 0,3.999755 c 9.01461,0 16.27911,7.265008 16.27911,16.279627 0,3.051399 -0.83478,5.900676 -2.28565,8.337475 -1.3845,2.325334 -3.33145,4.272752 -5.6565,5.657536 -2.4365,1.451164 -5.28556,2.286166 -8.33696,2.286166 -9.014623,0 -16.279625,-7.266558 -16.279625,-16.281177 0,-9.014619 7.265002,-16.279627 16.279625,-16.279627 z"
       style="fill:#1a1a1a;stroke-linecap:round"
       id="path16"
       inkscape:export-filename="../../pyside_poed_0001/poeditor/src/resources/icons/search.png"
       inkscape:export-xdpi="96"
       inkscape:export-ydpi="96" /><rect
       style="fill:#cccccc;stroke-width:0.499999"
       id="rect16"
       width="57.146633"
       height="57.146633"
       x="156.94518"
       y="102.36459" /><path
       d="m 93.027397,110.40825 0.100252,6.88588 c -1.736703,0.63719 -2.993099,2.30925 -2.993099,4.25452 v 5.59398 3.00757 20.53363 c 0,2.64929 2.178847,4.82968 4.828129,4.82968 h 38.937671 c 2.64928,0 4.8302,-2.18039 4.8302,-4.82968 v -20.53363 -3.00757 -5.59398 c 0,-2.48573 -2.04939,-4.53305 -4.53512,-4.53305 h -18.18701 l -4.15272,-6.60735 z m 3.042708,2.99981 h 14.127305 l 2.26704,3.60754 H 96.123848 Z m -1.401982,6.62492 h 23.236827 16.29048 c 0.86528,0 1.51567,0.65039 1.51567,1.51567 v 1.125 c -0.5607,-0.22976 -1.17143,-0.35915 -1.81075,-0.35915 H 94.962679 c -0.639297,0 -1.249721,0.1294 -1.810225,0.35915 v -1.125 c 0,-0.11221 0.01163,-0.22049 0.03256,-0.32452 0.140445,-0.69818 0.730056,-1.19115 1.483113,-1.19115 z m 0.294556,5.28133 h 38.937671 c 0.9695,0 1.71408,0.69032 1.81075,1.62626 0.007,0.0673 0.0191,0.13239 0.0191,0.20206 v 7.26415 16.27705 c 0,1.03918 -0.7907,1.82986 -1.82987,1.82986 H 94.962679 c -1.039173,0 -1.827795,-0.79068 -1.827795,-1.82986 v -16.27653 -7.26467 c 0,-0.064 0.01172,-0.12357 0.01757,-0.18552 0.08924,-0.94438 0.835021,-1.6428 1.810225,-1.6428 z"
       style="fill:#1a1a1a;stroke-linecap:round"
       id="path21"
       inkscape:export-filename="../../pyside_poed_0001/poeditor/src/resources/icons/explorer.png"
       inkscape:export-xdpi="96"
       inkscape:export-ydpi="96" /><path
       fill="none"
       stroke="#000000"
       stroke-width="4.16698"
       d="m 162.82037,30.735687 33.33582,33.335824 m 4.16698,-16.667913 c 0,0 -11.0007,11.000705 -11.0007,11.000705 m -3.58372,3.583718 c 0,0 -2.51425,2.514254 -4.16698,4.16698 -12.50093,12.500933 -31.25234,-6.250468 -18.7514,-18.7514 1.84496,-1.844962 4.16698,-4.16698 4.16698,-4.16698 m 4.16697,-4.166978 c 0,0 4.50359,-4.503585 10.41745,-10.417445 8.33396,-8.333956 20.83489,4.166978 12.50093,12.500934 -4.19337,4.193373 -10.41744,10.417445 -10.41744,10.417445 m -4.16698,4.166978 c 0,0 -2.81722,2.817225 -4.16698,4.166978 -4.16698,4.166978 -10.41744,-2.083488 -6.25046,-6.250466 1.04277,-1.042776 4.16698,-4.166978 4.16698,-4.166978 m 4.16697,-4.166979 c -0.54409,0.544095 10.41745,-10.417445 10.41745,-10.417445"
       id="path1"
       style="stroke-width:4"
       inkscape:export-filename="icons/undock.svg"
       inkscape:export-xdpi="96"
       inkscape:export-ydpi="96" /></g></svg>
